<?xml version="1.0" encoding="UTF-8" standalone="no"?>
<!DOCTYPE svg PUBLIC "-//W3C//DTD SVG 1.1//EN"
 "http://www.w3.org/Graphics/SVG/1.1/DTD/svg11.dtd">
<!-- Generated by graphviz version 2.38.0 (20140413.2041)
 -->
<!-- Title: classes Pages: 1 -->
<svg width="1905pt" height="759pt"
 viewBox="0.00 0.00 1904.75 759.00" xmlns="http://www.w3.org/2000/svg" xmlns:xlink="http://www.w3.org/1999/xlink">
<g id="graph0" class="graph" transform="scale(1 1) rotate(0) translate(4 755)">
<title>classes</title>
<polygon fill="white" stroke="none" points="-4,4 -4,-755 1900.75,-755 1900.75,4 -4,4"/>
<!-- Array -->
<g id="node1" class="node"><title>Array</title>
<ellipse fill="#c4ddec" stroke="black" cx="1382.14" cy="-18" rx="31.6951" ry="18"/>
<text text-anchor="middle" x="1382.14" y="-14.3" font-family="Helvetica Neue" font-size="14.00">Array</text>
</g>
<!-- Object -->
<g id="node4" class="node"><title>Object</title>
<ellipse fill="#c4ddec" stroke="black" cx="1644.97" cy="-180" rx="37.8943" ry="18"/>
<text text-anchor="middle" x="1644.97" y="-176.3" font-family="Helvetica Neue" font-size="14.00">Object</text>
</g>
<!-- Array&#45;&gt;Object -->
<g id="edge1" class="edge"><title>Array&#45;&gt;Object</title>
<path fill="none" stroke="#444444" d="M1414.03,-19.2218C1441.75,-21.4732 1482.78,-27.7374 1514.08,-45 1562.81,-71.8772 1604.43,-123.137 1626.67,-154.177"/>
<polygon fill="#444444" stroke="#444444" points="1624.07,-156.562 1632.68,-162.735 1629.8,-152.54 1624.07,-156.562"/>
</g>
<!-- Exception -->
<g id="node2" class="node"><title>Exception</title>
<ellipse fill="#c4ddec" stroke="black" cx="1382.14" cy="-288" rx="51.1914" ry="18"/>
<text text-anchor="middle" x="1382.14" y="-284.3" font-family="Helvetica Neue" font-size="14.00">Exception</text>
</g>
<!-- Exception&#45;&gt;Object -->
<g id="edge2" class="edge"><title>Exception&#45;&gt;Object</title>
<path fill="none" stroke="#444444" d="M1430.98,-282.294C1456.31,-278.249 1487.57,-271.602 1514.08,-261 1551.82,-245.904 1590.84,-219.929 1616.13,-201.465"/>
<polygon fill="#444444" stroke="#444444" points="1618.53,-204.044 1624.48,-195.278 1614.36,-198.42 1618.53,-204.044"/>
</g>
<!-- Naught__BasicObject -->
<g id="node3" class="node"><title>Naught__BasicObject</title>
<ellipse fill="#c4ddec" stroke="black" cx="1644.97" cy="-288" rx="94.7833" ry="18"/>
<text text-anchor="middle" x="1644.97" y="-284.3" font-family="Helvetica Neue" font-size="14.00">Naught::BasicObject</text>
</g>
<!-- BasicObject -->
<g id="node33" class="node"><title>BasicObject</title>
<ellipse fill="#c4ddec" stroke="black" cx="1836.31" cy="-234" rx="60.3893" ry="18"/>
<text text-anchor="middle" x="1836.31" y="-230.3" font-family="Helvetica Neue" font-size="14.00">BasicObject</text>
</g>
<!-- Naught__BasicObject&#45;&gt;BasicObject -->
<g id="edge3" class="edge"><title>Naught__BasicObject&#45;&gt;BasicObject</title>
<path fill="none" stroke="#444444" d="M1698.46,-273.03C1724.56,-265.585 1756.05,-256.605 1782.23,-249.138"/>
<polygon fill="#444444" stroke="#444444" points="1783.33,-252.464 1791.98,-246.356 1781.41,-245.733 1783.33,-252.464"/>
</g>
<!-- Object&#45;&gt;BasicObject -->
<g id="edge4" class="edge"><title>Object&#45;&gt;BasicObject</title>
<path fill="none" stroke="#444444" d="M1677.66,-189.038C1706.21,-197.182 1748.75,-209.315 1782.45,-218.925"/>
<polygon fill="#444444" stroke="#444444" points="1781.57,-222.314 1792.15,-221.691 1783.49,-215.583 1781.57,-222.314"/>
</g>
<!-- StandardError -->
<g id="node5" class="node"><title>StandardError</title>
<ellipse fill="#c4ddec" stroke="black" cx="1092.66" cy="-315" rx="68.4888" ry="18"/>
<text text-anchor="middle" x="1092.66" y="-311.3" font-family="Helvetica Neue" font-size="14.00">StandardError</text>
</g>
<!-- StandardError&#45;&gt;Exception -->
<g id="edge5" class="edge"><title>StandardError&#45;&gt;Exception</title>
<path fill="none" stroke="#444444" d="M1157.11,-309.041C1206.25,-304.426 1273.82,-298.079 1321.88,-293.566"/>
<polygon fill="#444444" stroke="#444444" points="1322.49,-297.024 1332.12,-292.604 1321.84,-290.054 1322.49,-297.024"/>
</g>
<!-- Teamsupport__Arguments -->
<g id="node6" class="node"><title>Teamsupport__Arguments</title>
<ellipse fill="#c4ddec" stroke="black" cx="1092.66" cy="-18" rx="114.28" ry="18"/>
<text text-anchor="middle" x="1092.66" y="-14.3" font-family="Helvetica Neue" font-size="14.00">Teamsupport::Arguments</text>
</g>
<!-- Teamsupport__Arguments&#45;&gt;Array -->
<g id="edge6" class="edge"><title>Teamsupport__Arguments&#45;&gt;Array</title>
<path fill="none" stroke="#444444" d="M1207.28,-18C1254.07,-18 1305.33,-18 1339.98,-18"/>
<polygon fill="#444444" stroke="#444444" points="1340.17,-21.5001 1350.17,-18 1340.17,-14.5001 1340.17,-21.5001"/>
</g>
<!-- Teamsupport__Base -->
<g id="node7" class="node"><title>Teamsupport__Base</title>
<ellipse fill="#c4ddec" stroke="black" cx="1382.14" cy="-234" rx="90.1842" ry="18"/>
<text text-anchor="middle" x="1382.14" y="-230.3" font-family="Helvetica Neue" font-size="14.00">Teamsupport::Base</text>
</g>
<!-- Teamsupport__Base&#45;&gt;Object -->
<g id="edge7" class="edge"><title>Teamsupport__Base&#45;&gt;Object</title>
<path fill="none" stroke="#444444" d="M1445.75,-221.111C1467.4,-216.649 1491.8,-211.611 1514.08,-207 1542.72,-201.07 1574.91,-194.378 1600.08,-189.14"/>
<polygon fill="#444444" stroke="#444444" points="1600.98,-192.528 1610.06,-187.064 1599.56,-185.675 1600.98,-192.528"/>
</g>
<!-- Teamsupport__Client -->
<g id="node8" class="node"><title>Teamsupport__Client</title>
<ellipse fill="#c4ddec" stroke="black" cx="1382.14" cy="-180" rx="93.6835" ry="18"/>
<text text-anchor="middle" x="1382.14" y="-176.3" font-family="Helvetica Neue" font-size="14.00">Teamsupport::Client</text>
</g>
<!-- Teamsupport__Client&#45;&gt;Object -->
<g id="edge8" class="edge"><title>Teamsupport__Client&#45;&gt;Object</title>
<path fill="none" stroke="#444444" d="M1475.83,-180C1516.84,-180 1563.28,-180 1596.95,-180"/>
<polygon fill="#444444" stroke="#444444" points="1596.97,-183.5 1606.97,-180 1596.97,-176.5 1596.97,-183.5"/>
</g>
<!-- Teamsupport__Customer -->
<g id="node9" class="node"><title>Teamsupport__Customer</title>
<ellipse fill="#c4ddec" stroke="black" cx="825.283" cy="-274" rx="109.681" ry="18"/>
<text text-anchor="middle" x="825.283" y="-270.3" font-family="Helvetica Neue" font-size="14.00">Teamsupport::Customer</text>
</g>
<!-- Teamsupport__Identity -->
<g id="node26" class="node"><title>Teamsupport__Identity</title>
<ellipse fill="#c4ddec" stroke="black" cx="1092.66" cy="-234" rx="100.182" ry="18"/>
<text text-anchor="middle" x="1092.66" y="-230.3" font-family="Helvetica Neue" font-size="14.00">Teamsupport::Identity</text>
</g>
<!-- Teamsupport__Customer&#45;&gt;Teamsupport__Identity -->
<g id="edge9" class="edge"><title>Teamsupport__Customer&#45;&gt;Teamsupport__Identity</title>
<path fill="none" stroke="#444444" d="M906.626,-261.89C937.736,-257.201 973.419,-251.823 1005.1,-247.048"/>
<polygon fill="#444444" stroke="#444444" points="1005.86,-250.472 1015.23,-245.521 1004.82,-243.55 1005.86,-250.472"/>
</g>
<!-- Teamsupport__CustomerProduct -->
<g id="node10" class="node"><title>Teamsupport__CustomerProduct</title>
<ellipse fill="#c4ddec" stroke="black" cx="537.106" cy="-220" rx="142.175" ry="18"/>
<text text-anchor="middle" x="537.106" y="-216.3" font-family="Helvetica Neue" font-size="14.00">Teamsupport::CustomerProduct</text>
</g>
<!-- Teamsupport__Product -->
<g id="node28" class="node"><title>Teamsupport__Product</title>
<ellipse fill="#c4ddec" stroke="black" cx="825.283" cy="-220" rx="102.882" ry="18"/>
<text text-anchor="middle" x="825.283" y="-216.3" font-family="Helvetica Neue" font-size="14.00">Teamsupport::Product</text>
</g>
<!-- Teamsupport__CustomerProduct&#45;&gt;Teamsupport__Product -->
<g id="edge10" class="edge"><title>Teamsupport__CustomerProduct&#45;&gt;Teamsupport__Product</title>
<path fill="none" stroke="#444444" d="M679.518,-220C690.509,-220 701.514,-220 712.272,-220"/>
<polygon fill="#444444" stroke="#444444" points="712.503,-223.5 722.503,-220 712.503,-216.5 712.503,-223.5"/>
</g>
<!-- Teamsupport__Error -->
<g id="node11" class="node"><title>Teamsupport__Error</title>
<ellipse fill="#c4ddec" stroke="black" cx="825.283" cy="-328" rx="89.8845" ry="18"/>
<text text-anchor="middle" x="825.283" y="-324.3" font-family="Helvetica Neue" font-size="14.00">Teamsupport::Error</text>
</g>
<!-- Teamsupport__Error&#45;&gt;StandardError -->
<g id="edge11" class="edge"><title>Teamsupport__Error&#45;&gt;StandardError</title>
<path fill="none" stroke="#444444" d="M912.811,-323.761C945.84,-322.143 983.229,-320.312 1015.25,-318.743"/>
<polygon fill="#444444" stroke="#444444" points="1015.63,-322.229 1025.45,-318.244 1015.29,-315.237 1015.63,-322.229"/>
</g>
<!-- Teamsupport__Error__BadGateway -->
<g id="node12" class="node"><title>Teamsupport__Error__BadGateway</title>
<ellipse fill="#c4ddec" stroke="black" cx="179.384" cy="-355" rx="147.574" ry="18"/>
<text text-anchor="middle" x="179.384" y="-351.3" font-family="Helvetica Neue" font-size="14.00">Teamsupport::Error::BadGateway</text>
</g>
<!-- Teamsupport__Error__ServerError -->
<g id="node20" class="node"><title>Teamsupport__Error__ServerError</title>
<ellipse fill="#c4ddec" stroke="black" cx="537.106" cy="-301" rx="141.075" ry="18"/>
<text text-anchor="middle" x="537.106" y="-297.3" font-family="Helvetica Neue" font-size="14.00">Teamsupport::Error::ServerError</text>
</g>
<!-- Teamsupport__Error__BadGateway&#45;&gt;Teamsupport__Error__ServerError -->
<g id="edge12" class="edge"><title>Teamsupport__Error__BadGateway&#45;&gt;Teamsupport__Error__ServerError</title>
<path fill="none" stroke="#444444" d="M272.971,-341.002C300.576,-336.824 330.897,-332.231 358.768,-328 383.775,-324.204 410.765,-320.099 435.961,-316.263"/>
<polygon fill="#444444" stroke="#444444" points="436.533,-319.716 445.892,-314.751 435.479,-312.796 436.533,-319.716"/>
</g>
<!-- Teamsupport__Error__BadRequest -->
<g id="node13" class="node"><title>Teamsupport__Error__BadRequest</title>
<ellipse fill="#c4ddec" stroke="black" cx="179.384" cy="-733" rx="145.674" ry="18"/>
<text text-anchor="middle" x="179.384" y="-729.3" font-family="Helvetica Neue" font-size="14.00">Teamsupport::Error::BadRequest</text>
</g>
<!-- Teamsupport__Error__ClientError -->
<g id="node14" class="node"><title>Teamsupport__Error__ClientError</title>
<ellipse fill="#c4ddec" stroke="black" cx="537.106" cy="-544" rx="138.375" ry="18"/>
<text text-anchor="middle" x="537.106" y="-540.3" font-family="Helvetica Neue" font-size="14.00">Teamsupport::Error::ClientError</text>
</g>
<!-- Teamsupport__Error__BadRequest&#45;&gt;Teamsupport__Error__ClientError -->
<g id="edge13" class="edge"><title>Teamsupport__Error__BadRequest&#45;&gt;Teamsupport__Error__ClientError</title>
<path fill="none" stroke="#444444" d="M305.08,-723.78C323.624,-719.683 342.09,-713.959 358.768,-706 426.471,-673.693 486.593,-606.795 516.356,-569.874"/>
<polygon fill="#444444" stroke="#444444" points="519.1,-572.047 522.578,-562.039 513.618,-567.693 519.1,-572.047"/>
</g>
<!-- Teamsupport__Error__ClientError&#45;&gt;Teamsupport__Error -->
<g id="edge14" class="edge"><title>Teamsupport__Error__ClientError&#45;&gt;Teamsupport__Error</title>
<path fill="none" stroke="#444444" d="M562.013,-525.955C613.612,-487.009 735.402,-395.086 793.025,-351.593"/>
<polygon fill="#444444" stroke="#444444" points="795.172,-354.358 801.045,-345.54 790.955,-348.77 795.172,-354.358"/>
</g>
<!-- Teamsupport__Error__Forbidden -->
<g id="node15" class="node"><title>Teamsupport__Error__Forbidden</title>
<ellipse fill="#c4ddec" stroke="black" cx="179.384" cy="-679" rx="136.476" ry="18"/>
<text text-anchor="middle" x="179.384" y="-675.3" font-family="Helvetica Neue" font-size="14.00">Teamsupport::Error::Forbidden</text>
</g>
<!-- Teamsupport__Error__Forbidden&#45;&gt;Teamsupport__Error__ClientError -->
<g id="edge15" class="edge"><title>Teamsupport__Error__Forbidden&#45;&gt;Teamsupport__Error__ClientError</title>
<path fill="none" stroke="#444444" d="M292.943,-668.897C315.163,-664.979 338.014,-659.543 358.768,-652 414.362,-631.794 471.548,-593.118 505.443,-567.952"/>
<polygon fill="#444444" stroke="#444444" points="507.652,-570.67 513.544,-561.864 503.447,-565.074 507.652,-570.67"/>
</g>
<!-- Teamsupport__Error__GatewayTimeout -->
<g id="node16" class="node"><title>Teamsupport__Error__GatewayTimeout</title>
<ellipse fill="#c4ddec" stroke="black" cx="179.384" cy="-301" rx="163.571" ry="18"/>
<text text-anchor="middle" x="179.384" y="-297.3" font-family="Helvetica Neue" font-size="14.00">Teamsupport::Error::GatewayTimeout</text>
</g>
<!-- Teamsupport__Error__GatewayTimeout&#45;&gt;Teamsupport__Error__ServerError -->
<g id="edge16" class="edge"><title>Teamsupport__Error__GatewayTimeout&#45;&gt;Teamsupport__Error__ServerError</title>
<path fill="none" stroke="#444444" d="M343.409,-301C357.53,-301 371.776,-301 385.789,-301"/>
<polygon fill="#444444" stroke="#444444" points="385.946,-304.5 395.946,-301 385.946,-297.5 385.946,-304.5"/>
</g>
<!-- Teamsupport__Error__InternalServerError -->
<g id="node17" class="node"><title>Teamsupport__Error__InternalServerError</title>
<ellipse fill="#c4ddec" stroke="black" cx="179.384" cy="-247" rx="171.67" ry="18"/>
<text text-anchor="middle" x="179.384" y="-243.3" font-family="Helvetica Neue" font-size="14.00">Teamsupport::Error::InternalServerError</text>
</g>
<!-- Teamsupport__Error__InternalServerError&#45;&gt;Teamsupport__Error__ServerError -->
<g id="edge17" class="edge"><title>Teamsupport__Error__InternalServerError&#45;&gt;Teamsupport__Error__ServerError</title>
<path fill="none" stroke="#444444" d="M278.061,-261.769C304.273,-265.736 332.601,-270.028 358.768,-274 383.775,-277.796 410.765,-281.901 435.961,-285.737"/>
<polygon fill="#444444" stroke="#444444" points="435.479,-289.204 445.892,-287.249 436.533,-282.284 435.479,-289.204"/>
</g>
<!-- Teamsupport__Error__NotAcceptable -->
<g id="node18" class="node"><title>Teamsupport__Error__NotAcceptable</title>
<ellipse fill="#c4ddec" stroke="black" cx="179.384" cy="-625" rx="155.173" ry="18"/>
<text text-anchor="middle" x="179.384" y="-621.3" font-family="Helvetica Neue" font-size="14.00">Teamsupport::Error::NotAcceptable</text>
</g>
<!-- Teamsupport__Error__NotAcceptable&#45;&gt;Teamsupport__Error__ClientError -->
<g id="edge18" class="edge"><title>Teamsupport__Error__NotAcceptable&#45;&gt;Teamsupport__Error__ClientError</title>
<path fill="none" stroke="#444444" d="M285.091,-611.752C309.405,-607.958 335.094,-603.366 358.768,-598 399.048,-588.87 443.508,-575.323 477.835,-564.083"/>
<polygon fill="#444444" stroke="#444444" points="479.293,-567.287 487.691,-560.828 477.098,-560.641 479.293,-567.287"/>
</g>
<!-- Teamsupport__Error__NotFound -->
<g id="node19" class="node"><title>Teamsupport__Error__NotFound</title>
<ellipse fill="#c4ddec" stroke="black" cx="179.384" cy="-571" rx="135.676" ry="18"/>
<text text-anchor="middle" x="179.384" y="-567.3" font-family="Helvetica Neue" font-size="14.00">Teamsupport::Error::NotFound</text>
</g>
<!-- Teamsupport__Error__NotFound&#45;&gt;Teamsupport__Error__ClientError -->
<g id="edge19" class="edge"><title>Teamsupport__Error__NotFound&#45;&gt;Teamsupport__Error__ClientError</title>
<path fill="none" stroke="#444444" d="M297.846,-562.084C332.9,-559.424 371.505,-556.493 407.247,-553.781"/>
<polygon fill="#444444" stroke="#444444" points="407.54,-557.269 417.247,-553.022 407.011,-550.289 407.54,-557.269"/>
</g>
<!-- Teamsupport__Error__ServerError&#45;&gt;Teamsupport__Error -->
<g id="edge20" class="edge"><title>Teamsupport__Error__ServerError&#45;&gt;Teamsupport__Error</title>
<path fill="none" stroke="#444444" d="M651.211,-311.671C678.52,-314.248 707.354,-316.968 733.49,-319.434"/>
<polygon fill="#444444" stroke="#444444" points="733.461,-322.947 743.746,-320.402 734.119,-315.978 733.461,-322.947"/>
</g>
<!-- Teamsupport__Error__ServiceUnavailable -->
<g id="node21" class="node"><title>Teamsupport__Error__ServiceUnavailable</title>
<ellipse fill="#c4ddec" stroke="black" cx="179.384" cy="-193" rx="172.47" ry="18"/>
<text text-anchor="middle" x="179.384" y="-189.3" font-family="Helvetica Neue" font-size="14.00">Teamsupport::Error::ServiceUnavailable</text>
</g>
<!-- Teamsupport__Error__ServiceUnavailable&#45;&gt;Teamsupport__Error__ServerError -->
<g id="edge21" class="edge"><title>Teamsupport__Error__ServiceUnavailable&#45;&gt;Teamsupport__Error__ServerError</title>
<path fill="none" stroke="#444444" d="M309.641,-204.797C326.527,-208.574 343.313,-213.523 358.768,-220 377.214,-227.73 377.257,-237.337 394.768,-247 419.132,-260.444 447.535,-272.009 472.462,-280.947"/>
<polygon fill="#444444" stroke="#444444" points="471.592,-284.351 482.187,-284.366 473.914,-277.747 471.592,-284.351"/>
</g>
<!-- Teamsupport__Error__TooManyRequests -->
<g id="node22" class="node"><title>Teamsupport__Error__TooManyRequests</title>
<ellipse fill="#c4ddec" stroke="black" cx="179.384" cy="-517" rx="171.67" ry="18"/>
<text text-anchor="middle" x="179.384" y="-513.3" font-family="Helvetica Neue" font-size="14.00">Teamsupport::Error::TooManyRequests</text>
</g>
<!-- Teamsupport__Error__TooManyRequests&#45;&gt;Teamsupport__Error__ClientError -->
<g id="edge22" class="edge"><title>Teamsupport__Error__TooManyRequests&#45;&gt;Teamsupport__Error__ClientError</title>
<path fill="none" stroke="#444444" d="M318.934,-527.516C347.989,-529.722 378.517,-532.039 407.203,-534.216"/>
<polygon fill="#444444" stroke="#444444" points="407.031,-537.713 417.267,-534.98 407.561,-530.733 407.031,-537.713"/>
</g>
<!-- Teamsupport__Error__Unauthorized -->
<g id="node23" class="node"><title>Teamsupport__Error__Unauthorized</title>
<ellipse fill="#c4ddec" stroke="black" cx="179.384" cy="-463" rx="149.473" ry="18"/>
<text text-anchor="middle" x="179.384" y="-459.3" font-family="Helvetica Neue" font-size="14.00">Teamsupport::Error::Unauthorized</text>
</g>
<!-- Teamsupport__Error__Unauthorized&#45;&gt;Teamsupport__Error__ClientError -->
<g id="edge23" class="edge"><title>Teamsupport__Error__Unauthorized&#45;&gt;Teamsupport__Error__ClientError</title>
<path fill="none" stroke="#444444" d="M283.212,-475.956C308.078,-479.806 334.483,-484.495 358.768,-490 399.048,-499.13 443.508,-512.677 477.835,-523.917"/>
<polygon fill="#444444" stroke="#444444" points="477.098,-527.359 487.691,-527.172 479.293,-520.713 477.098,-527.359"/>
</g>
<!-- Teamsupport__Error__UnprocessableEntity -->
<g id="node24" class="node"><title>Teamsupport__Error__UnprocessableEntity</title>
<ellipse fill="#c4ddec" stroke="black" cx="179.384" cy="-409" rx="179.268" ry="18"/>
<text text-anchor="middle" x="179.384" y="-405.3" font-family="Helvetica Neue" font-size="14.00">Teamsupport::Error::UnprocessableEntity</text>
</g>
<!-- Teamsupport__Error__UnprocessableEntity&#45;&gt;Teamsupport__Error__ClientError -->
<g id="edge24" class="edge"><title>Teamsupport__Error__UnprocessableEntity&#45;&gt;Teamsupport__Error__ClientError</title>
<path fill="none" stroke="#444444" d="M306.709,-421.718C324.474,-425.346 342.283,-430.008 358.768,-436 414.362,-456.206 471.548,-494.882 505.443,-520.048"/>
<polygon fill="#444444" stroke="#444444" points="503.447,-522.926 513.544,-526.136 507.652,-517.33 503.447,-522.926"/>
</g>
<!-- Teamsupport__Headers -->
<g id="node25" class="node"><title>Teamsupport__Headers</title>
<ellipse fill="#c4ddec" stroke="black" cx="1382.14" cy="-126" rx="103.982" ry="18"/>
<text text-anchor="middle" x="1382.14" y="-122.3" font-family="Helvetica Neue" font-size="14.00">Teamsupport::Headers</text>
</g>
<!-- Teamsupport__Headers&#45;&gt;Object -->
<g id="edge25" class="edge"><title>Teamsupport__Headers&#45;&gt;Object</title>
<path fill="none" stroke="#444444" d="M1449.76,-139.715C1470.38,-143.966 1493.17,-148.671 1514.08,-153 1542.72,-158.93 1574.91,-165.622 1600.08,-170.86"/>
<polygon fill="#444444" stroke="#444444" points="1599.56,-174.325 1610.06,-172.936 1600.98,-167.472 1599.56,-174.325"/>
</g>
<!-- Teamsupport__Identity&#45;&gt;Teamsupport__Base -->
<g id="edge26" class="edge"><title>Teamsupport__Identity&#45;&gt;Teamsupport__Base</title>
<path fill="none" stroke="#444444" d="M1193,-234C1221.6,-234 1252.8,-234 1281.42,-234"/>
<polygon fill="#444444" stroke="#444444" points="1281.43,-237.5 1291.43,-234 1281.43,-230.5 1281.43,-237.5"/>
</g>
<!-- Teamsupport__NullObject -->
<g id="node27" class="node"><title>Teamsupport__NullObject</title>
<ellipse fill="#c4ddec" stroke="black" cx="1382.14" cy="-342" rx="112.38" ry="18"/>
<text text-anchor="middle" x="1382.14" y="-338.3" font-family="Helvetica Neue" font-size="14.00">Teamsupport::NullObject</text>
</g>
<!-- Teamsupport__NullObject&#45;&gt;Naught__BasicObject -->
<g id="edge27" class="edge"><title>Teamsupport__NullObject&#45;&gt;Naught__BasicObject</title>
<path fill="none" stroke="#444444" d="M1451.78,-327.868C1471.86,-323.727 1493.85,-319.188 1514.08,-315 1532.25,-311.237 1551.85,-307.168 1570.18,-303.359"/>
<polygon fill="#444444" stroke="#444444" points="1571.14,-306.735 1580.22,-301.273 1569.72,-299.881 1571.14,-306.735"/>
</g>
<!-- Teamsupport__Product&#45;&gt;Teamsupport__Identity -->
<g id="edge28" class="edge"><title>Teamsupport__Product&#45;&gt;Teamsupport__Identity</title>
<path fill="none" stroke="#444444" d="M923.97,-225.153C944.291,-226.225 965.792,-227.36 986.373,-228.445"/>
<polygon fill="#444444" stroke="#444444" points="986.223,-231.942 996.393,-228.974 986.592,-224.952 986.223,-231.942"/>
</g>
<!-- Teamsupport__REST__Client -->
<g id="node29" class="node"><title>Teamsupport__REST__Client</title>
<ellipse fill="#c4ddec" stroke="black" cx="1092.66" cy="-180" rx="121.578" ry="18"/>
<text text-anchor="middle" x="1092.66" y="-176.3" font-family="Helvetica Neue" font-size="14.00">Teamsupport::REST::Client</text>
</g>
<!-- Teamsupport__REST__Client&#45;&gt;Teamsupport__Client -->
<g id="edge29" class="edge"><title>Teamsupport__REST__Client&#45;&gt;Teamsupport__Client</title>
<path fill="none" stroke="#444444" d="M1214.33,-180C1235.59,-180 1257.54,-180 1278.26,-180"/>
<polygon fill="#444444" stroke="#444444" points="1278.32,-183.5 1288.32,-180 1278.32,-176.5 1278.32,-183.5"/>
</g>
<!-- Teamsupport__REST__Request -->
<g id="node30" class="node"><title>Teamsupport__REST__Request</title>
<ellipse fill="#c4ddec" stroke="black" cx="1382.14" cy="-72" rx="131.877" ry="18"/>
<text text-anchor="middle" x="1382.14" y="-68.3" font-family="Helvetica Neue" font-size="14.00">Teamsupport::REST::Request</text>
</g>
<!-- Teamsupport__REST__Request&#45;&gt;Object -->
<g id="edge30" class="edge"><title>Teamsupport__REST__Request&#45;&gt;Object</title>
<path fill="none" stroke="#444444" d="M1470.34,-85.4722C1485.21,-89.0378 1500.29,-93.4835 1514.08,-99 1551.82,-114.096 1590.84,-140.071 1616.13,-158.535"/>
<polygon fill="#444444" stroke="#444444" points="1614.36,-161.58 1624.48,-164.722 1618.53,-155.956 1614.36,-161.58"/>
</g>
<!-- Teamsupport__Ticket -->
<g id="node31" class="node"><title>Teamsupport__Ticket</title>
<ellipse fill="#c4ddec" stroke="black" cx="825.283" cy="-166" rx="94.7833" ry="18"/>
<text text-anchor="middle" x="825.283" y="-162.3" font-family="Helvetica Neue" font-size="14.00">Teamsupport::Ticket</text>
</g>
<!-- Teamsupport__Ticket&#45;&gt;Teamsupport__Identity -->
<g id="edge31" class="edge"><title>Teamsupport__Ticket&#45;&gt;Teamsupport__Identity</title>
<path fill="none" stroke="#444444" d="M887.401,-179.706C903.067,-183.616 919.813,-188.146 935.123,-193 951.488,-198.188 954.701,-201.999 971.123,-207 984.958,-211.213 999.869,-215.081 1014.33,-218.492"/>
<polygon fill="#444444" stroke="#444444" points="1013.72,-221.942 1024.25,-220.779 1015.29,-215.121 1013.72,-221.942"/>
</g>
<!-- Teamsupport__TicketAction -->
<g id="node32" class="node"><title>Teamsupport__TicketAction</title>
<ellipse fill="#c4ddec" stroke="black" cx="537.106" cy="-166" rx="120.779" ry="18"/>
<text text-anchor="middle" x="537.106" y="-162.3" font-family="Helvetica Neue" font-size="14.00">Teamsupport::TicketAction</text>
</g>
<!-- Teamsupport__TicketAction&#45;&gt;Teamsupport__Ticket -->
<g id="edge32" class="edge"><title>Teamsupport__TicketAction&#45;&gt;Teamsupport__Ticket</title>
<path fill="none" stroke="#444444" d="M658.227,-166C678.771,-166 699.963,-166 720.05,-166"/>
<polygon fill="#444444" stroke="#444444" points="720.128,-169.5 730.128,-166 720.128,-162.5 720.128,-169.5"/>
</g>
</g>
</svg>
